<svg width="1024" height="1404" xmlns="http://www.w3.org/2000/svg" class="icon">
 <defs>
  <style type="text/css"/>
 </defs>
 <g>
  <rect fill="none" height="1406" width="1026" y="-1" x="-1"/>
 </g>
 <g>
  <path fill="#B3B3B3" d="m776,328m-72,0a72,72 0 1 0 144,0a72,72 0 1 0 -144,0z"/>
  <path fill="#B3B3B3" d="m999.904,116.608a32,32 0 0 0 -21.952,-10.912l-456.192,-31.904a31.552,31.552 0 0 0 -27.2,11.904l-92.192,114.848a32,32 0 0 0 0.672,40.896l146.144,169.952l-147.456,194.656l36.48,-173.376a32,32 0 0 0 -11.136,-31.424l-191.456,-155.744l79.616,-125.696a32,32 0 0 0 -29.28,-49.024l-240.192,16.768a32,32 0 0 0 -29.696,34.176l55.808,798.016a32.064,32.064 0 0 0 34.304,29.696l176.512,-13.184c17.632,-1.312 30.848,-16.672 29.504,-34.272s-16.576,-31.04 -34.304,-29.536l-144.448,10.784l-6.432,-92.512l125.312,-12.576a32,32 0 0 0 28.672,-35.04a32.16,32.16 0 0 0 -35.04,-28.672l-123.392,12.416l-40.416,-577.664l145.152,-10.144l-60.96,96.224a32,32 0 0 0 6.848,41.952l198.4,161.344l-58.752,279.296a30.912,30.912 0 0 0 0.736,14.752a31.68,31.68 0 0 0 1.408,11.04l51.52,154.56a31.968,31.968 0 0 0 27.456,21.76l523.104,47.552a32.064,32.064 0 0 0 34.848,-29.632l55.776,-798.048a32.064,32.064 0 0 0 -7.776,-23.232zm-98.912,630.848l-412.576,-39.648a31.52,31.52 0 0 0 -34.912,28.768a32,32 0 0 0 28.8,34.912l414.24,39.808l-6.272,89.536l-469.728,-42.72l-39.584,-118.72l234.816,-310.016a31.936,31.936 0 0 0 -1.248,-40.192l-145.632,-169.344l65.088,-81.056l407.584,28.48l-40.576,580.192z"/>
  <text xml:space="preserve" text-anchor="start" font-size="250" y="1338.421875" x="12.953125" fill="#B3B3B3">加载失败</text>
 </g>
</svg>