<svg width="1024" height="1404" xmlns="http://www.w3.org/2000/svg" class="icon">
 <defs>
  <style type="text/css"/>
 </defs>
 <g>
  <rect fill="none" height="1406" width="1026" y="-1" x="-1"/>
 </g>
 <g>
  <path fill="#B3B3B3" d="m691.8,483.9c75.2,0 136.4,-61.2 136.4,-136.4s-61.2,-136.4 -136.4,-136.4s-136.4,61.2 -136.4,136.4s61.2,136.4 136.4,136.4zm0,-221.6c47,0 85.2,38.2 85.2,85.2s-38.2,85.2 -85.2,85.2s-85.2,-38.2 -85.2,-85.2s38.3,-85.2 85.2,-85.2z"/>
  <path fill="#B3B3B3" d="m887.7,61.8l-751.2,0c-75.2,0 -136.4,61.2 -136.4,136.4l0,627.8c0,75.2 61.2,136.4 136.4,136.4l751.2,0c72.4,0 131.7,-56.8 136,-128.1l0.4,0.4l0,-636.5c0,-75.2 -61.2,-136.4 -136.4,-136.4zm-836.4,136.4c0,-47 38.2,-85.2 85.2,-85.2l751.2,0c47,0 85.2,38.2 85.2,85.2l0,512.9l-76.8,-76.8l-228.6,216.4l-24.1,-24.3l-406.5,-414.4l-185.6,185.6l0,-399.4zm0,627.8l0,-151.9l185.4,-185.4l369.9,373.2l23.4,23.9l-0.2,0.2l18.6,18.6l6.6,6.7l-518.5,0c-47,-0.1 -85.2,-38.3 -85.2,-85.3zm921.6,0c0,47 -38.2,85.2 -85.2,85.2l-160.1,0l-23.8,-24l191.2,-177.6l78,78l0,38.4l-0.1,0z"/>
  <text xml:space="preserve" text-anchor="start" font-size="250" y="1339.421875" x="12" fill="#B3B3B3">暂无图片</text>
 </g>
</svg>