<?xml version="1.0" standalone="no"?><!DOCTYPE svg PUBLIC "-//W3C//DTD SVG 1.1//EN" "http://www.w3.org/Graphics/SVG/1.1/DTD/svg11.dtd"><svg t="1491272516655" class="icon" style="" viewBox="0 0 1028 1024" version="1.1" xmlns="http://www.w3.org/2000/svg" p-id="10346" xmlns:xlink="http://www.w3.org/1999/xlink" width="200.78125" height="200"><defs><style type="text/css"></style></defs><path d="M1024 521.035294l-60.235294-93.364706c18.070588-15.058824 33.129412-33.129412 51.2-51.2 9.035294-9.035294 9.035294-27.105882 3.011765-36.141176-9.035294-12.047059-24.094118-12.047059-33.129412-3.011765-117.458824 120.470588-237.929412 195.764706-361.411765 222.870588-99.388235 21.082353-198.776471 15.058824-298.164706-24.094117-90.352941-33.129412-159.623529-84.329412-204.8-123.482353-48.188235-39.152941-75.294118-72.282353-75.294117-75.294118-9.035294-12.047059-24.094118-12.047059-33.129412 0-9.035294 9.035294-9.035294 27.105882 0 36.141177 0 0 21.082353 27.105882 60.235294 60.235294L18.070588 515.011765c-9.035294 12.047059-6.023529 27.105882 3.011765 36.141176 3.011765 3.011765 9.035294 6.023529 15.058823 6.02353s12.047059-3.011765 18.070589-9.035295l54.211764-81.317647c39.152941 33.129412 96.376471 69.270588 162.635295 99.388236l-36.141177 90.352941c-6.023529 12.047059 0 30.117647 12.047059 36.141176 3.011765 3.011765 6.023529 3.011765 9.035294 3.011765 9.035294 0 18.070588-6.023529 21.082353-15.058823l39.152941-96.376471c60.235294 21.082353 117.458824 33.129412 177.694118 36.141176V722.823529c0 15.058824 9.035294 27.105882 24.094117 27.105883 12.047059 0 24.094118-12.047059 24.094118-27.105883v-102.4c30.117647 0 63.247059-6.023529 93.364706-12.047058 33.129412-6.023529 66.258824-18.070588 99.388235-30.117647l39.152941 96.37647c3.011765 9.035294 12.047059 15.058824 21.082353 15.058824 3.011765 0 6.023529 0 9.035294-3.011765 12.047059-6.023529 15.058824-21.082353 12.047059-36.141177l-39.152941-93.364705c51.2-27.105882 105.411765-60.235294 153.6-102.4l60.235294 93.364705c3.011765 6.023529 12.047059 12.047059 18.070588 12.047059 6.023529 0 9.035294-3.011765 12.047059-6.023529 9.035294-6.023529 9.035294-21.082353 3.011765-33.129412z" p-id="10347"></path></svg>