<?xml version="1.0" standalone="no"?><!DOCTYPE svg PUBLIC "-//W3C//DTD SVG 1.1//EN" "http://www.w3.org/Graphics/SVG/1.1/DTD/svg11.dtd"><svg t="1491272638597" class="icon" style="" viewBox="0 0 1261 1024" version="1.1" xmlns="http://www.w3.org/2000/svg" p-id="5913" xmlns:xlink="http://www.w3.org/1999/xlink" width="246.2890625" height="200"><defs><style type="text/css"></style></defs><path d="M1059.18359 339.784205c5.566359-1.942974 10.581333-5.408821 13.758359-10.738872l78.979282-132.673641c7.246769-12.209231 2.914462-27.989333-9.688615-35.262359s-28.750769-3.255795-36.023795 8.979692l-78.979282 132.673641c-2.573128 4.306051-3.203282 9.005949-3.019487 13.67959-41.642667-25.862564-88.956718-48.889436-142.230974-66.822564 4.46359-3.912205 7.876923-9.137231 8.874667-15.465026l24.103385-155.674256c2.231795-14.336-7.588103-27.753026-21.924103-29.984821-14.336-2.205538-27.753026 7.614359-29.984821 21.924103l-24.103385 155.674256c-0.577641 3.754667-0.262564 7.404308 0.65641 10.870154-55.296-14.913641-116.394667-24.339692-183.322256-26.308923C656.305231 210.445128 656.410256 210.261333 656.410256 210.051282L656.410256 52.512821c0-14.493538-11.762872-26.25641-26.25641-26.25641-14.519795 0-26.25641 11.762872-26.25641 26.25641l0 157.538462c0 0.210051 0.105026 0.393846 0.105026 0.577641C188.652308 222.916923 0 524.182974 0 617.025641 0 711.785026 196.424205 1024 630.153846 1024s630.153846-312.214974 630.153846-406.974359C1260.307692 562.753641 1195.716923 437.195487 1059.18359 339.784205zM630.153846 976.108308C231.634051 976.108308 52.512821 690.674872 52.512821 617.025641S231.634051 257.916718 630.153846 257.916718 1207.794872 543.37641 1207.794872 617.025641 1028.673641 976.108308 630.153846 976.108308zM630.153846 367.589744c-130.310564 0-236.307692 105.997128-236.307692 236.307692s105.997128 236.307692 236.307692 236.307692 236.307692-105.997128 236.307692-236.307692S760.46441 367.589744 630.153846 367.589744zM630.153846 787.692308c-101.323487 0-183.794872-82.471385-183.794872-183.794872s82.471385-183.794872 183.794872-183.794872 183.794872 82.471385 183.794872 183.794872S731.477333 787.692308 630.153846 787.692308zM397.049436 236.386462c14.782359-2.258051 24.94359-15.832615 22.633026-30.326154l-24.864821-157.538462c-2.310564-14.519795-16.147692-24.444718-30.956308-22.186667s-24.917333 15.832615-22.633026 30.326154l24.891077 157.538462C368.403692 228.693333 382.267077 238.618256 397.049436 236.386462zM176.285538 317.938872c7.456821 12.629333 23.998359 16.804103 36.916513 9.294769 12.94441-7.509333 17.381744-23.867077 9.924923-36.49641L142.178462 153.311179C134.747897 140.65559 118.206359 136.507077 105.288205 144.01641 92.343795 151.525744 87.906462 167.883487 95.337026 180.512821L176.285538 317.938872z" p-id="5914"></path></svg>