<?xml version="1.0" standalone="no"?><!DOCTYPE svg PUBLIC "-//W3C//DTD SVG 1.1//EN" "http://www.w3.org/Graphics/SVG/1.1/DTD/svg11.dtd"><svg t="1491271801539" class="icon" style="" viewBox="0 0 1024 1024" version="1.1" xmlns="http://www.w3.org/2000/svg" p-id="6754" xmlns:xlink="http://www.w3.org/1999/xlink" width="200" height="200"><defs><style type="text/css"></style></defs><path d="M514.686179 266.844487c-254.462482 0-446.048939 254.162654-446.048939 254.162654s191.586456 260.772188 446.048939 260.772188c257.190617 0 443.432345-260.772188 443.432345-260.772188S778.016633 266.844487 514.686179 266.844487zM513.378393 704.413288c-99.467409 0-180.101891-80.634482-180.101891-180.101891s80.634482-180.101891 180.101891-180.101891 180.101891 80.634482 180.101891 180.101891S612.845803 704.413288 513.378393 704.413288z" p-id="6755"></path><path d="M513.378393 524.311397m-85.957721 0a84 84 0 1 0 171.915441 0 84 84 0 1 0-171.915441 0Z" p-id="6756"></path></svg>